<?xml version="1.0" encoding="UTF-8"?>
<svg xmlns="http://www.w3.org/2000/svg" viewBox="0 0 1080 1080" width="1080" height="1080">
  <defs>
    <linearGradient id="bg" x1="0%" y1="0%" x2="100%" y2="100%">
      <stop offset="0%" stop-color="#FAF3E4"/>
      <stop offset="100%" stop-color="#F0D8B8"/>
    </linearGradient>
  </defs>
  <rect width="1080" height="1080" fill="url(#bg)"/>

  <!-- 背景ハート＆星 -->
  <g opacity="0.22" fill="#E88878">
    <path d="M 140 200 C 120 180, 90 190, 100 220 C 110 245, 140 255, 140 255 C 140 255, 170 245, 180 220 C 190 190, 160 180, 140 200 Z"/>
    <path d="M 940 240 C 920 220, 890 230, 900 260 C 910 285, 940 295, 940 295 C 940 295, 970 285, 980 260 C 990 230, 960 220, 940 240 Z"/>
  </g>
  <g opacity="0.35" fill="#E8D28A">
    <circle cx="180" cy="560" r="9"/>
    <circle cx="920" cy="580" r="11"/>
    <circle cx="90" cy="780" r="7"/>
    <circle cx="980" cy="810" r="8"/>
    <circle cx="540" cy="140" r="9"/>
  </g>

  <!-- 地面の影 -->
  <ellipse cx="380" cy="840" rx="140" ry="12" fill="#2C2A26" opacity="0.14"/>
  <ellipse cx="700" cy="840" rx="140" ry="12" fill="#2C2A26" opacity="0.14"/>
  <ellipse cx="540" cy="870" rx="110" ry="10" fill="#2C2A26" opacity="0.18"/>

  <!-- パパくん 左（viewBox 160x200 → scale 2.3 → 368x460） -->
  <g transform="translate(210, 380) scale(2.3)">
    <ellipse cx="90" cy="44" rx="30" ry="6" fill="#5B7889"/>
    <path d="M 40 42 Q 40 20 80 18 Q 120 20 120 42 L 120 50 L 40 50 Z" fill="#6E8A9E"/>
    <circle cx="80" cy="22" r="3" fill="#5B7889"/>
    <ellipse cx="80" cy="118" rx="58" ry="54" fill="#F0DCC4"/>
    <ellipse cx="80" cy="168" rx="40" ry="4" fill="#D8C4A8" opacity="0.35"/>
    <ellipse cx="46" cy="128" rx="9" ry="5" fill="#F0B090" opacity="0.55"/>
    <ellipse cx="114" cy="128" rx="9" ry="5" fill="#F0B090" opacity="0.55"/>
    <circle cx="58" cy="108" r="12" fill="none" stroke="#2C2A26" stroke-width="2.5"/>
    <circle cx="102" cy="108" r="12" fill="none" stroke="#2C2A26" stroke-width="2.5"/>
    <line x1="70" y1="108" x2="90" y2="108" stroke="#2C2A26" stroke-width="2"/>
    <circle cx="58" cy="108" r="3" fill="#2C2A26"/>
    <circle cx="102" cy="108" r="3" fill="#2C2A26"/>
    <circle cx="59" cy="106.5" r="1" fill="#fff"/>
    <circle cx="103" cy="106.5" r="1" fill="#fff"/>
    <path d="M 66 140 Q 80 152 94 140" stroke="#2C2A26" stroke-width="3" fill="none" stroke-linecap="round"/>
    <ellipse cx="60" cy="180" rx="12" ry="5" fill="#D8C4A8"/>
    <ellipse cx="100" cy="180" rx="12" ry="5" fill="#D8C4A8"/>
  </g>

  <!-- ママちゃん 右（viewBox 160x200 → scale 2.3） -->
  <g transform="translate(530, 380) scale(2.3)">
    <path d="M 34 55 Q 22 110 40 160 Q 50 170 55 155 Q 45 110 50 65 Z" fill="#6B4E36"/>
    <path d="M 126 55 Q 138 110 120 160 Q 110 170 105 155 Q 115 110 110 65 Z" fill="#6B4E36"/>
    <path d="M 30 52 Q 34 22 80 18 Q 126 22 130 52 Q 128 62 116 58 Q 100 44 80 44 Q 60 44 44 58 Q 32 62 30 52 Z" fill="#6B4E36"/>
    <ellipse cx="80" cy="118" rx="56" ry="54" fill="#F8DAC2"/>
    <ellipse cx="80" cy="168" rx="40" ry="4" fill="#D8C0A8" opacity="0.35"/>
    <ellipse cx="46" cy="128" rx="10" ry="6" fill="#F09898" opacity="0.55"/>
    <ellipse cx="114" cy="128" rx="10" ry="6" fill="#F09898" opacity="0.55"/>
    <path d="M 58 104 Q 62 100 66 104" stroke="#2C2A26" stroke-width="2" fill="none" stroke-linecap="round"/>
    <path d="M 94 104 Q 98 100 102 104" stroke="#2C2A26" stroke-width="2" fill="none" stroke-linecap="round"/>
    <circle cx="62" cy="110" r="3.5" fill="#2C2A26"/>
    <circle cx="98" cy="110" r="3.5" fill="#2C2A26"/>
    <circle cx="63" cy="108.5" r="1.2" fill="#fff"/>
    <circle cx="99" cy="108.5" r="1.2" fill="#fff"/>
    <path d="M 66 138 Q 80 148 94 138" stroke="#2C2A26" stroke-width="2.8" fill="none" stroke-linecap="round"/>
    <ellipse cx="60" cy="180" rx="12" ry="5" fill="#E8C8B0"/>
    <ellipse cx="100" cy="180" rx="12" ry="5" fill="#E8C8B0"/>
  </g>

  <!-- キッズちゃん 前面・小さめ（viewBox 140x180 → scale 2.0 → 280x360） -->
  <g transform="translate(400, 480) scale(2.0)">
    <path d="M 64 24 Q 70 10 76 24" stroke="#8B6A4A" stroke-width="5" fill="none" stroke-linecap="round"/>
    <ellipse cx="70" cy="104" rx="52" ry="50" fill="#FCE8D4"/>
    <ellipse cx="70" cy="156" rx="36" ry="3.5" fill="#D8C8B0" opacity="0.35"/>
    <ellipse cx="34" cy="114" rx="11" ry="7" fill="#F88878" opacity="0.65"/>
    <ellipse cx="106" cy="114" rx="11" ry="7" fill="#F88878" opacity="0.65"/>
    <circle cx="52" cy="98" r="5.5" fill="#2C2A26"/>
    <circle cx="88" cy="98" r="5.5" fill="#2C2A26"/>
    <circle cx="54" cy="96" r="2" fill="#fff"/>
    <circle cx="90" cy="96" r="2" fill="#fff"/>
    <ellipse cx="70" cy="122" rx="8" ry="6" fill="#2C2A26"/>
    <ellipse cx="70" cy="124" rx="5" ry="3" fill="#F8A0A0"/>
    <ellipse cx="18" cy="105" rx="8" ry="10" fill="#FCE8D4" transform="rotate(-20 18 105)"/>
    <ellipse cx="122" cy="105" rx="8" ry="10" fill="#FCE8D4" transform="rotate(20 122 105)"/>
    <ellipse cx="54" cy="162" rx="10" ry="4" fill="#E8D0B8"/>
    <ellipse cx="86" cy="162" rx="10" ry="4" fill="#E8D0B8"/>
  </g>

  <g font-family="Inter, 'Noto Sans JP', sans-serif" fill="#2C2A26">
    <text x="540" y="78" font-size="22" font-weight="600" text-anchor="middle" letter-spacing="8" opacity="0.6">KODOCO FAMILY</text>
    <text x="540" y="918" font-size="22" font-weight="600" text-anchor="middle" letter-spacing="5" opacity="0.65">— 家族で、おでかけ</text>
    <text x="540" y="998" font-size="72" font-weight="900" text-anchor="middle" letter-spacing="-3">今日、どこいく？</text>
    <text x="540" y="1046" font-size="22" font-weight="500" text-anchor="middle" opacity="0.7">パパもママも、子どもも笑顔に。</text>
  </g>
</svg>
